<svg width="159" height="23" viewBox="0 0 159 23" fill="none" xmlns="http://www.w3.org/2000/svg">
<path d="M16.928 9.52C16.928 7.62133 16.608 6.352 15.968 5.712C15.3493 5.05067 14.176 4.72 12.448 4.72H11.488V21.36H13.728V22H4.448V21.36H6.688V4.72H5.728C4.02133 4.72 2.848 5.05067 2.208 5.712C1.58933 6.352 1.28 7.62133 1.28 9.52H0.64V4.08H17.568V9.52H16.928ZM24.7788 20.08C25.2481 21.1467 26.0588 21.68 27.2108 21.68C28.3628 21.68 29.1841 21.136 29.6748 20.048C30.1654 18.96 30.4108 17.168 30.4108 14.672C30.4108 12.1547 30.1654 10.352 29.6748 9.264C29.1841 8.15467 28.3628 7.6 27.2108 7.6C26.0588 7.6 25.2481 8.15467 24.7788 9.264C24.3094 10.352 24.0748 12.1547 24.0748 14.672C24.0748 17.1893 24.3094 18.992 24.7788 20.08ZM27.1468 22.32C25.1201 22.32 23.2854 21.6587 21.6428 20.336C20.0001 19.0133 19.1788 17.136 19.1788 14.704C19.1788 13.4027 19.4134 12.24 19.8828 11.216C20.3734 10.192 21.0134 9.38133 21.8028 8.784C22.6134 8.18667 23.4774 7.73867 24.3948 7.44C25.3121 7.12 26.2508 6.96 27.2108 6.96C28.1708 6.96 29.1094 7.12 30.0268 7.44C30.9654 7.73867 31.8294 8.18667 32.6188 8.784C33.4294 9.38133 34.0801 10.192 34.5708 11.216C35.0614 12.24 35.3068 13.392 35.3068 14.672C35.3068 15.952 35.0614 17.0933 34.5708 18.096C34.0801 19.0987 33.4294 19.8987 32.6188 20.496C30.9974 21.712 29.1734 22.32 27.1468 22.32ZM55.7373 21.36V22C52.8359 22 50.8199 21.7973 49.6893 21.392C48.5799 20.9653 47.4813 19.92 46.3933 18.256L44.3773 15.152L43.9613 15.536V21.36H45.5613V22H37.5613V21.36H39.1613V1.2H37.5613V0.559999H43.9613V14.576L50.6493 7.92H48.0573V7.28H54.1373V7.92H51.6093L47.7693 11.728L51.6093 17.488C53.3373 20.0693 54.7133 21.36 55.7373 21.36ZM62.6225 20.08C63.0918 21.1467 63.9025 21.68 65.0545 21.68C66.2065 21.68 67.0278 21.136 67.5185 20.048C68.0092 18.96 68.2545 17.168 68.2545 14.672C68.2545 12.1547 68.0092 10.352 67.5185 9.264C67.0278 8.15467 66.2065 7.6 65.0545 7.6C63.9025 7.6 63.0918 8.15467 62.6225 9.264C62.1532 10.352 61.9185 12.1547 61.9185 14.672C61.9185 17.1893 62.1532 18.992 62.6225 20.08ZM64.9905 22.32C62.9638 22.32 61.1292 21.6587 59.4865 20.336C57.8438 19.0133 57.0225 17.136 57.0225 14.704C57.0225 13.4027 57.2572 12.24 57.7265 11.216C58.2172 10.192 58.8572 9.38133 59.6465 8.784C60.4572 8.18667 61.3212 7.73867 62.2385 7.44C63.1558 7.12 64.0945 6.96 65.0545 6.96C66.0145 6.96 66.9532 7.12 67.8705 7.44C68.8092 7.73867 69.6732 8.18667 70.4625 8.784C71.2732 9.38133 71.9238 10.192 72.4145 11.216C72.9052 12.24 73.1505 13.392 73.1505 14.672C73.1505 15.952 72.9052 17.0933 72.4145 18.096C71.9238 19.0987 71.2732 19.8987 70.4625 20.496C68.8412 21.712 67.0172 22.32 64.9905 22.32ZM92.205 21.36H93.805V22H85.805V21.36H87.405V12.4C87.405 10.8853 87.181 9.808 86.733 9.168C86.285 8.528 85.613 8.208 84.717 8.208C83.501 8.208 82.5303 8.848 81.805 10.128V21.36H83.405V22H75.405V21.36H77.005V7.92H75.405V7.28H81.805V8.944C82.2103 8.38933 82.8397 7.92 83.693 7.536C84.5677 7.13067 85.5063 6.928 86.509 6.928C90.3063 6.928 92.205 8.98667 92.205 13.104V21.36ZM111.55 21.36C111.337 21.5733 110.931 21.7653 110.334 21.936C109.737 22.0853 109.043 22.16 108.254 22.16C106.505 22.16 105.406 21.6373 104.958 20.592C103.891 21.7013 102.259 22.256 100.062 22.256C98.8887 22.256 97.918 21.9893 97.15 21.456C96.4033 20.9013 96.03 20.0907 96.03 19.024C96.03 17.5947 96.5847 16.496 97.694 15.728C98.8033 14.9387 100.745 14.384 103.518 14.064L104.798 13.904V12.336C104.798 10.48 104.659 9.232 104.382 8.592C104.105 7.952 103.55 7.632 102.718 7.632C101.907 7.632 101.385 7.74933 101.15 7.984C100.915 8.19733 100.83 8.45333 100.894 8.752C100.958 9.02933 101.065 9.40267 101.214 9.872C101.363 10.3413 101.438 10.7147 101.438 10.992C101.438 11.6533 101.203 12.2187 100.734 12.688C100.286 13.136 99.7313 13.36 99.07 13.36C98.43 13.36 97.8753 13.136 97.406 12.688C96.9367 12.2187 96.702 11.6533 96.702 10.992C96.702 9.904 97.2567 8.976 98.366 8.208C99.4967 7.41867 101.171 7.024 103.39 7.024C105.63 7.024 107.219 7.46133 108.158 8.336C109.118 9.21067 109.598 10.7573 109.598 12.976V18.736C109.598 19.8667 109.737 20.5813 110.014 20.88C110.291 21.1573 110.803 21.2107 111.55 21.04V21.36ZM100.478 18.384C100.585 19.1947 100.883 19.824 101.374 20.272C101.865 20.6987 102.43 20.912 103.07 20.912C103.731 20.912 104.307 20.592 104.798 19.952V14.512L103.646 14.672C102.665 14.8 101.865 15.1733 101.246 15.792C100.649 16.4107 100.393 17.2747 100.478 18.384ZM119.516 22.384C117.788 22.384 116.294 21.7013 115.036 20.336C113.777 18.9707 113.148 17.04 113.148 14.544C113.148 12.048 113.766 10.096 115.004 8.688C116.241 7.28 117.745 6.576 119.516 6.576C120.39 6.576 121.212 6.75733 121.98 7.12C122.748 7.48267 123.302 8.02667 123.644 8.752V1.2H122.044V0.559999H128.444V21.36H130.044V22H123.644V20.528C123.068 21.7653 121.692 22.384 119.516 22.384ZM123.644 14.992V9.712C123.068 8.56 122.31 7.984 121.372 7.984C120.454 7.984 119.665 8.51733 119.004 9.584C118.342 10.6507 118.012 12.3467 118.012 14.672C118.012 16.976 118.353 18.6613 119.036 19.728C119.718 20.7947 120.54 21.2533 121.5 21.104C122.033 21.0187 122.438 20.848 122.716 20.592C123.334 19.9947 123.644 18.128 123.644 14.992ZM138.68 21.36H140.28V22H132.28V21.36H133.88V7.92H132.6V7.28H138.68V21.36ZM138.968 3.056C138.968 3.824 138.691 4.48533 138.136 5.04C137.603 5.57333 136.941 5.84 136.152 5.84C135.384 5.84 134.723 5.57333 134.168 5.04C133.613 4.48533 133.336 3.824 133.336 3.056C133.336 2.26667 133.613 1.59467 134.168 1.04C134.723 0.485332 135.384 0.207998 136.152 0.207998C136.941 0.207998 137.603 0.485332 138.136 1.04C138.691 1.59467 138.968 2.26667 138.968 3.056ZM158.05 21.36C157.837 21.5733 157.431 21.7653 156.834 21.936C156.237 22.0853 155.543 22.16 154.754 22.16C153.005 22.16 151.906 21.6373 151.458 20.592C150.391 21.7013 148.759 22.256 146.562 22.256C145.389 22.256 144.418 21.9893 143.65 21.456C142.903 20.9013 142.53 20.0907 142.53 19.024C142.53 17.5947 143.085 16.496 144.194 15.728C145.303 14.9387 147.245 14.384 150.018 14.064L151.298 13.904V12.336C151.298 10.48 151.159 9.232 150.882 8.592C150.605 7.952 150.05 7.632 149.218 7.632C148.407 7.632 147.885 7.74933 147.65 7.984C147.415 8.19733 147.33 8.45333 147.394 8.752C147.458 9.02933 147.565 9.40267 147.714 9.872C147.863 10.3413 147.938 10.7147 147.938 10.992C147.938 11.6533 147.703 12.2187 147.234 12.688C146.786 13.136 146.231 13.36 145.57 13.36C144.93 13.36 144.375 13.136 143.906 12.688C143.437 12.2187 143.202 11.6533 143.202 10.992C143.202 9.904 143.757 8.976 144.866 8.208C145.997 7.41867 147.671 7.024 149.89 7.024C152.13 7.024 153.719 7.46133 154.658 8.336C155.618 9.21067 156.098 10.7573 156.098 12.976V18.736C156.098 19.8667 156.237 20.5813 156.514 20.88C156.791 21.1573 157.303 21.2107 158.05 21.04V21.36ZM146.978 18.384C147.085 19.1947 147.383 19.824 147.874 20.272C148.365 20.6987 148.93 20.912 149.57 20.912C150.231 20.912 150.807 20.592 151.298 19.952V14.512L150.146 14.672C149.165 14.8 148.365 15.1733 147.746 15.792C147.149 16.4107 146.893 17.2747 146.978 18.384Z" fill="#FF6E31"/>
</svg>
